<svg xmlns="http://www.w3.org/2000/svg" xmlns:xlink="http://www.w3.org/1999/xlink" style="display: none;">
  <!-- Dice Symbol (Tabletop Symbols Bundle 07) -->
  <symbol id="icon-dice" viewBox="0 0 2048 2048">
    <path fill="currentColor" d="M 1009.23 322.411 C 1040.79 319.558 1081.05 326.351 1110.38 337.983 C 1125.27 343.885 1140.26 353.073 1154.31 361.036 C 1172.14 371.167 1190.02 381.202 1207.95 391.14 L 1429.94 516.026 L 1532.26 573.376 C 1553.2 584.939 1571.7 592.071 1590.45 607.407 C 1628.23 638.721 1652.14 683.669 1656.99 732.5 C 1659.56 758.499 1658.04 808.487 1658.05 836.149 L 1658.07 1031.9 L 1658.11 1203.81 C 1658.15 1232.68 1659.6 1283.13 1655.22 1309.3 C 1648.72 1345.95 1632.87 1380.31 1609.22 1409.05 C 1596.35 1424.79 1581.1 1438.43 1564.02 1449.46 C 1552.42 1457.05 1537.08 1465.07 1524.75 1471.9 L 1472.25 1501.37 L 1303.44 1596.73 L 1179.8 1666.39 C 1128.91 1695.25 1100.29 1716.89 1040.18 1722.92 C 979.234 1725.69 948.751 1712.07 897.617 1682.96 L 842.724 1651.65 L 675.496 1556.8 L 547.029 1484.21 C 521.207 1469.73 487.82 1452.86 465.362 1435.19 C 425.961 1404.2 395.229 1344.85 391.338 1294.91 C 389.023 1265.2 390.318 1223.04 390.348 1192.14 L 390.429 1004.79 L 390.423 826.319 C 390.441 798.417 389.029 748.131 393.247 722.277 C 398.682 688.969 412.846 657.696 434.297 631.643 C 445.087 618.374 457.882 606.871 472.22 597.549 C 486.847 588.156 513.845 575.826 530.871 566.309 L 689.665 476.897 L 859.271 381.639 C 872.617 374.247 885.908 366.756 899.144 359.167 C 941.365 334.471 958.846 327.235 1009.23 322.411 z" />
    <path fill="#ffffff" d="M 1529.29 740.254 C 1609.49 731.646 1596.14 824.222 1596.11 875.161 L 1596.17 1018.77 L 1596.21 1178.8 C 1596.17 1246.12 1601.5 1289.75 1564.41 1350.72 C 1550.22 1374.15 1531.45 1394.48 1509.23 1410.49 C 1496.13 1419.92 1468.77 1434.05 1453.66 1442.47 L 1364.89 1492.56 L 1226.56 1570.68 C 1200.55 1585.37 1154.05 1615.07 1126.72 1621.7 C 1114.96 1623.82 1101.24 1623.13 1091.21 1616.41 C 1062.03 1596.87 1062.21 1556.98 1062.53 1526.06 C 1062.72 1507.79 1062.5 1491.47 1062.5 1474.23 L 1062.56 1297.04 L 1062.56 1170.75 C 1062.45 1144.41 1060.94 1113.57 1064.22 1087.77 C 1071.8 1028.26 1108.47 970.644 1161.17 941.323 C 1174.01 934.175 1187.02 926.887 1199.95 919.668 L 1285.27 871.605 L 1421.92 794.466 C 1448.84 779.253 1501.58 746.144 1529.29 740.254 z" />
    <path fill="currentColor" d="M 1354.5 1076.29 C 1380.73 1073.85 1398.63 1090.25 1403.27 1115.28 C 1410.51 1154.38 1396 1197.11 1374.59 1229.54 C 1356.69 1256.65 1335.46 1277.59 1302.93 1284.4 C 1208.52 1291.07 1253.72 1091.09 1354.5 1076.29 z" />
    <path fill="currentColor" d="M 1197.8 974.25 C 1296.02 963.048 1253.1 1157.2 1157.35 1181.65 C 1127.27 1184.91 1110.3 1168.31 1104.62 1139.96 C 1096.66 1100.27 1110.53 1056.33 1132.27 1023.17 C 1147.45 1000.02 1170.11 979.886 1197.8 974.25 z" />
    <path fill="currentColor" d="M 1203.57 1350.32 C 1219.15 1349.07 1236.5 1356.73 1243.66 1370.43 C 1276.28 1432.87 1218.61 1545.17 1151.83 1554.56 C 1122.21 1557.11 1106.16 1532.54 1103.19 1506.32 C 1098.65 1466.05 1113.39 1423.73 1137.92 1392.03 C 1155.03 1369.91 1175.44 1353.95 1203.57 1350.32 z" />
    <path fill="currentColor" d="M 1507.23 1181.4 C 1594.86 1185.32 1551.08 1369.24 1454.4 1386.05 C 1360.92 1387.6 1409.5 1190 1507.23 1181.4 z" />
    <path fill="currentColor" d="M 1500.35 806.172 C 1594.9 799.866 1555.79 984.201 1461.98 1008.95 C 1432.29 1013.6 1413.63 996.989 1407.64 969.046 C 1399.39 930.546 1412.4 889.749 1433.36 857.46 C 1449.5 832.62 1470.87 812.601 1500.35 806.172 z" />
    <path fill="#ffffff" d="M 499.058 740.215 C 518.128 738.527 532.439 742.578 549.213 751.472 C 584.356 770.107 619.203 790.194 653.768 809.905 L 789.497 886.629 C 811.213 899.039 833.029 911.274 854.941 923.334 C 877.02 935.58 898.109 946.25 917.685 962.784 C 955.586 994.794 981.135 1044.59 984.597 1094.19 C 986.443 1120.64 985.305 1149.56 985.39 1176.29 L 985.535 1338.48 L 985.497 1480.93 C 985.508 1499.58 985.167 1518.48 985.462 1537.08 C 985.993 1570.51 980.942 1609.97 943.892 1621.84 C 913.441 1627.54 874.95 1600 848.966 1585.07 L 765.785 1537.96 L 629.806 1461.38 C 602.554 1446.23 572.492 1429.99 546.108 1414.63 C 503.4 1388.17 467.941 1336.13 457.443 1286.91 C 450.459 1254.17 452.999 1207.3 453.006 1172.69 L 453.071 1007.05 L 453.031 871.383 C 453.017 850.944 453.073 830.407 453.078 809.969 C 453.088 777.07 463.669 748.523 499.058 740.215 z" />
    <path fill="currentColor" d="M 835.09 974.171 C 929.368 966.996 991.391 1162.93 905.238 1181.93 C 814.132 1185.71 747.748 993.65 835.09 974.171 z" />
    <path fill="currentColor" d="M 684.225 1076.29 C 776.194 1073.89 843.617 1260.94 756.806 1283.95 C 665.718 1290.91 594.63 1089.66 684.225 1076.29 z" />
    <path fill="currentColor" d="M 531.54 1182.28 C 543.903 1181.26 555.747 1182.01 567.577 1188.16 C 622.652 1216.81 661.283 1301.07 636.989 1360.3 C 631.831 1372.87 619.824 1381.25 607.265 1385.33 C 520.456 1399.2 444.677 1208.34 531.54 1182.28 z" />
    <path fill="currentColor" d="M 831.587 1351.16 C 928.805 1343.02 989.615 1528.3 909.494 1553.76 C 895.855 1555.06 884.736 1553.99 872.428 1547.44 C 838.66 1529.09 814.112 1493.65 802.466 1457.74 C 791.108 1422.71 786.795 1364.27 831.587 1351.16 z" />
    <path fill="currentColor" d="M 534.772 806.24 C 627.268 801.754 687.009 989.038 605.099 1009 C 515.949 1020.86 445.132 824.526 534.772 806.24 z" />
    <path fill="#ffffff" d="M 1010.55 393.419 C 1036.34 391.35 1081.47 397.222 1105.25 406.923 C 1127.73 416.096 1157.04 433.704 1179.01 445.978 C 1223.19 470.405 1267.25 495.071 1311.16 519.975 L 1421.12 581.054 C 1439.14 591.135 1457.65 600.956 1474.96 612.185 C 1483.81 618.424 1492.08 628.631 1493.38 639.471 C 1496.08 661.781 1481.82 676.035 1464.25 686.423 C 1440.82 700.271 1416.74 713.613 1393.11 726.957 L 1260.13 801.884 L 1173.24 850.965 C 1122.33 879.732 1102.64 892.828 1041.84 898.94 C 965.091 900.182 942.208 888.69 878.327 852.483 L 788.594 801.757 L 652.278 725.054 C 626.691 710.679 599.63 696.419 575.265 680.264 C 548.134 662.274 548.843 627.5 577.228 610.806 C 600.485 597.128 623.714 583.921 647.071 570.631 C 698.748 541.384 750.579 512.411 802.562 483.711 L 892.996 433.266 C 939.365 407.856 955.957 398.639 1010.55 393.419 z" />
    <path fill="currentColor" d="M 1007.6 731.382 C 1044.82 725.133 1130.3 742.687 1136.05 789.75 C 1141.71 836.069 1079.43 855.158 1044.15 859.836 C 1011.62 864.544 965.257 856.966 937.963 838.025 C 895.529 808.578 910.077 764.215 952.538 745.796 C 972.235 737.251 985.86 733.844 1007.6 731.382 z" />
    <path fill="currentColor" d="M 1009.52 433.411 C 1042.08 429.086 1086.24 438.806 1112.98 457.962 C 1135.52 474.11 1144.86 501.432 1125.95 524.729 C 1105.61 549.77 1073 559.218 1042.25 562.911 C 1005.16 565.136 965.685 560.964 935.016 537.822 C 912.838 521.087 904.032 492.772 923.644 469.959 C 944.544 445.647 978.666 436.403 1009.52 433.411 z" />
    <path fill="currentColor" d="M 1281.68 581.41 C 1320.61 575.727 1401.42 591.231 1409.93 637.468 C 1418.36 683.293 1353.92 703.865 1321.05 708.736 C 1283.2 712.452 1243.06 707.717 1211.53 684.966 C 1195.4 673.362 1183.59 652.463 1190.71 632.444 C 1203.04 597.781 1249.3 584.437 1281.68 581.41 z" />
    <path fill="currentColor" d="M 734.517 581.396 C 768.942 578.069 810.845 585.092 838.745 606.795 C 860.675 623.854 868.056 651.544 848.38 673.811 C 828.969 695.778 794.615 706.82 766.237 709.02 C 732.502 712.37 689.45 705.796 661.454 684.84 C 639.399 668.332 629.219 640.374 649.136 617.181 C 670.165 592.693 703.516 584.454 734.517 581.396 z" />
  </symbol>

  <!-- Chair Symbol (Dungeon Map Icons Bundle 17) -->
  <symbol id="icon-chair" viewBox="0 0 2048 2048">
    <path fill="currentColor" d="M 1009.32 584.374 C 1026.95 582.764 1044.72 584.099 1061.91 588.325 C 1107.07 599.78 1137.39 627.753 1160.72 666.908 C 1188.82 666.608 1216.91 666.485 1245 666.538 L 1245 1003.11 L 1244.86 1093.28 C 1244.75 1149.26 1235.93 1179.21 1291.54 1208.45 C 1291.87 1239.27 1291.79 1270.09 1291.32 1300.91 L 1039.75 1301.05 L 756.922 1301.06 C 756.731 1270.22 756.753 1239.37 756.987 1208.53 C 766.637 1203.75 775.811 1198.41 783.523 1190.79 C 793.596 1180.89 800.173 1167.99 802.261 1154.02 C 804.187 1141.5 803.552 1114.44 803.576 1100.57 L 803.652 1007.1 L 803.55 666.941 C 829.305 665.698 861.35 666.887 887.884 666.733 C 915.442 618.321 953.536 591.359 1009.32 584.374 z" />
    <path fill="currentColor" d="M 590.947 1212.87 L 718.101 1212.67 C 718.278 1365.07 716.369 1521.14 718.656 1673.23 C 746.733 1672.63 776.719 1670.52 805.201 1669.54 C 874.941 1667.06 944.718 1665.71 1014.5 1665.49 C 1087.19 1665.66 1159.87 1666.92 1232.52 1669.28 C 1264.94 1670.31 1297.64 1672.5 1329.97 1673.12 L 1330.04 1212.93 C 1372.39 1212.44 1415.5 1212.67 1457.85 1212.81 L 1457.88 1505.38 C 1457.89 1562.34 1458.78 1622.05 1457.36 1678.83 C 1564.58 1684.12 1671.59 1692.9 1778.24 1705.14 C 1800.8 1708.23 1828.06 1710.85 1850.01 1715.09 C 1829.28 1717.03 1789.66 1716.05 1767.61 1716.09 L 1611.84 1716.14 L 1088.65 1715.48 L 497.588 1716.16 C 431.625 1716.54 365.66 1716.52 299.698 1716.11 C 270.856 1716.05 225.514 1717.4 197.598 1715.26 C 206.874 1712.86 222.642 1711.44 232.569 1710.18 C 257.74 1707 282.95 1704.14 308.194 1701.61 C 402.299 1691.64 496.641 1684.06 591.13 1678.86 L 590.947 1212.87 z" />
    <path fill="currentColor" d="M 757.017 1339.78 C 813.997 1341.08 875.649 1339.95 932.92 1339.93 L 1291.14 1339.91 C 1292.04 1366.69 1291.73 1395.29 1291.3 1422.07 C 1268.16 1422.4 1245.02 1422.62 1221.88 1422.71 C 1214.12 1438.36 1209.24 1447.89 1198.98 1462.38 C 1173.06 1496.9 1145.29 1519.49 1105.34 1536.81 C 1054.68 1558.76 997.331 1559.47 946.144 1538.77 C 892.96 1517.29 850.436 1475.64 827.852 1422.91 C 804.932 1422.3 779.923 1422.73 756.848 1422.69 L 757.017 1339.78 z" />
    <path fill="currentColor" d="M 682.214 434.416 C 706.57 434.693 723.385 440.79 741.395 457.738 C 771.206 485.793 765.052 527.36 765.016 565.188 L 764.95 675.583 L 764.909 1073.26 C 743.272 1061.36 721.521 1064.59 696.739 1064.8 L 664.644 1064.79 C 663.797 1013.81 664.481 960.957 664.419 909.825 L 664.045 588.891 C 651.387 585.062 641.524 580.343 631.368 571.576 C 616.092 558.174 606.743 539.269 605.366 518.994 C 604.012 498.181 610.877 477.668 624.485 461.862 C 640.324 443.597 658.557 436.092 682.214 434.416 z" />
    <path fill="currentColor" d="M 1352.72 435.222 C 1369.58 433.491 1385.4 435.427 1400.63 443.232 C 1419.26 452.859 1433.28 469.504 1439.6 489.49 C 1445.78 509.216 1443.81 530.59 1434.14 548.859 C 1422.2 571.417 1407.59 581.175 1384.09 588.589 C 1383.16 746.757 1385.45 906.999 1383.14 1064.86 L 1368.5 1064.8 C 1352.88 1064.64 1337.19 1064.46 1321.57 1064.31 C 1306.02 1064.16 1297.82 1066.19 1283.98 1073.14 L 1283.94 687.362 L 1283.89 569.368 C 1283.83 536.783 1278.48 496.489 1298.15 469.01 C 1312.02 449.637 1329.52 439.519 1352.72 435.222 z" />
    <path fill="currentColor" d="M 1024.27 331.631 C 1026.72 333.335 1031.69 339.403 1033.69 341.912 C 1050.95 363.576 1065.49 392.486 1071.81 419.454 C 1101.93 396.128 1125.88 386.883 1163.86 385.728 C 1127.89 419.539 1106.71 441.94 1087.67 490.067 C 1099.33 493.839 1108.19 497.476 1119.32 502.246 C 1136.63 473.762 1170.06 446.718 1201.14 434.702 C 1195.21 469.726 1182.29 493.257 1165.76 523.847 C 1195.04 531.478 1215.5 535.168 1245.21 539.917 C 1245.66 568.758 1245.13 599.035 1245.03 627.964 L 1180.99 628.023 C 1139.21 575.195 1093.41 549.828 1025.96 546.116 C 960.812 545.563 906.864 577.187 867.809 627.769 C 846.682 628.252 824.808 627.921 803.624 627.866 C 803.97 598.722 803.393 569.225 803.556 539.974 C 836.8 533.807 849.649 532.944 882.95 522.886 C 865.667 495.226 853.513 466.498 847.746 434.352 C 882.605 449.148 906.445 471.924 928.705 502.036 C 940.226 497.518 949.138 494.135 960.987 490.572 C 941.136 444.529 920.605 419.558 884.309 385.819 C 921.54 386.625 946.822 396.791 975.511 420.112 C 984.223 388.001 1000.52 355.272 1024.27 331.631 z" />
    <path fill="currentColor" d="M 1310.53 1103.23 C 1330.51 1101.98 1352.77 1102.93 1372.94 1102.83 C 1403.77 1102.69 1434.77 1102.5 1465.56 1103.05 C 1506.62 1103.78 1514.19 1159.8 1473.89 1172.84 C 1466.61 1174.06 1458.77 1173.93 1451.38 1173.92 C 1407.76 1173.86 1364.09 1174.25 1320.48 1173.74 C 1315.81 1173.34 1308.58 1173.08 1304.36 1171.35 C 1278.49 1160.77 1273.67 1122.7 1298.47 1108.15 C 1302.81 1105.6 1305.88 1104.66 1310.53 1103.23 z" />
    <path fill="currentColor" d="M 577.481 1103.3 C 598.804 1102.24 733.478 1100.71 744.412 1105.4 C 753.341 1109.23 760.536 1116.39 763.927 1125.54 C 767.396 1134.91 766.461 1144.79 762.043 1153.68 C 757.037 1163.74 748.899 1169.39 738.497 1172.91 C 723.024 1175.26 682.694 1174 665.678 1173.92 C 646.912 1173.82 580.529 1176.51 568.963 1170.68 C 559.948 1166.16 553.225 1158.08 550.411 1148.4 C 543.848 1126.49 556.108 1108.88 577.481 1103.3 z" />
    <path fill="currentColor" d="M 777.849 1460.47 L 804.995 1460.37 C 815.677 1481.16 825.38 1492.85 839.849 1510.9 C 831.598 1540.23 818.239 1576.01 808.026 1605.28 L 804.457 1614.72 C 788.534 1615.02 772.608 1615.08 756.683 1614.91 C 757.696 1564.19 756.69 1511.86 756.988 1460.89 L 777.849 1460.47 z" />
    <path fill="currentColor" d="M 1247.03 1460.48 L 1291.1 1460.88 C 1291.76 1512.26 1291.85 1563.64 1291.38 1615.02 L 1252.75 1614.94 L 1244.11 1614.8 C 1231.77 1582.31 1219.38 1543.81 1208.3 1510.6 C 1221.41 1495.38 1231.38 1481.8 1241.5 1464.58 C 1243.72 1460.8 1243.95 1461.08 1247.03 1460.48 z" />
  </symbol>
</svg>
